{"title":"Krush Groove 1985 DVDRip Xvid BigPerm LKRG","uid":5767219,"size":986731561,"categoryP":"video","categoryS":"movies","magnet":"?xt=urn:btih:53e76fcff7aae2b7b1adb58af9d5a2182cb30616&amp;dn=Krush+Groove+1985+DVDRip+Xvid+BigPerm+LKRG&amp;tr=udp%3A%2F%2Ftracker.openbittorrent.com%3A80&amp;tr=udp%3A%2F%2Fopen.demonii.com%3A1337&amp;tr=udp%3A%2F%2Ftracker.coppersurfer.tk%3A6969&amp;tr=udp%3A%2F%2Fexodus.desync.com%3A6969","seeders":1,"leechers":0,"uploader":"LKRG","files":-1,"time":1281958319,"description":"In this movie based on the early days of Def Jam Recordings, up-and-coming manager Russell Walker has all the hottest acts on the record label Krush Groove records, including Run-D.M.C., Dr. Jekyll &amp; Mr. Hyde, and Kurtis Blow, while Rick (Rubin) produces their records. When Run-D.M.C. has a hit record and Russell doesn\\'t have the money to press records, he borrows money from a street hustler. At the same time, Russell and and his brother Run are both competing for the heart of R&amp;B singer Sheila E.\n\n\nCast:\n\nSheila E. ... Herself\nJoseph Simmons ... Himself (Run-D.M.C)\nDarryl McDaniels ... Himself (Run-D.M.C.) (as Daryll McDaniels)\nJason Mizell ... Himself (Run-D.M.C.)\nMark Morales ... Himself (Fat Boys)\nDamon Wimbley ... Himself (Fat Boys)\nDarren Robinson ... Himself (Fat Boys) (as Darren \\'Buffy\\' Robinson)\nKurtis Blow ... Himself\nBlair Underwood ... Russell Walker\nRicky Bell ... Himself (New Edition)\nMichael Lamone Bivins ... Himself (New Edition) (as Michael Bivins)\nBobby Brown ... Himself (New Edition) (as New Edition)\nRonald De Voe ... Himself (New Edition) (as New Edition)\nRalph E. Tresvant ... Himself (New Edition) (as Ralph Tresvant)\nLisa Gay Hamilton ... Aisha\nDaniel Simmons ... Reverend Walker\nRussell Simmons ... Crocket\nCharles Stettler ... Terri Beiker\nRick Rubin ... Rick\nSal Abbatiello ... Sal\nAdam Horovitz ... Himself (Beastie Boys)\nAdam Yauch ... Himself (Beastie Boys) (as Adam Youck)\nMike D ... Himself (Beastie Boys)\nDonnie Simpson ... Contest MC\nKaren Moss ... Karen\nAndre Harrell ... Himself (as Dr. Jeckyll)\nMr. Hyde ... Himself\nGalaxy ... Himself\nChad Elliot ... Chad\nMichael Lewis ... Mandingo\nB-Fine ... Enforcer #1\nPaul Anthony ... Enforcer #2\nSweet G. ... Fever D.J\nMr. Magic ... Himself\nLL Cool J ... Himself\nNayobe ... Herself\nMichael Kaufman ... Loan Officer\nElaine Shapiro ... Mrs. Ekhardt\nJohn MacKay ... Dean\nKarl SchrÃƒÂ¶der ... Car Wash Boss\nHeidi Smith ... Carmen\nLeon Stephenson ... Scar\nBenny Rietveld ... Sheila\\'s Friend / Sheila Es Band\nHaoui Montaug ... Danceteria D.J\nJulian Jackson ... Man in Bar\nSunshine Wright ... Kurtis Blow\\'s Girl\nSandra J. Wright ... Kurtis Blow\\'s Girl\nJeffrey Fludd ... Hollis Crew\nDouglas Hayes ... Hollis Crew\nDanny Hayton ... Hollis Crew\nErnest Mobily ... Hollis Crew\nRaymond White ... Hollis Crew\nTerry Williams ... Hollis Crew\n &lt;a href=&quot;\nhttp://leetleech.org/images/20635521220351631085.jpg&quot; rel=&quot;nofollow&quot; target=&quot;_NEW&quot;&gt;\nhttp://leetleech.org/images/20635521220351631085.jpg&lt;/a&gt;\n\n &lt;a href=&quot; http://www.imdb.com/title/tt0089444/&quot; rel=&quot;nofollow&quot; target=&quot;_NEW&quot;&gt; http://www.imdb.com/title/tt0089444/&lt;/a&gt;\nRelease Date\nOctober 25, 1985 (USA)\n &lt;a href=&quot;\nhttp://postimg.com/image/20000/19841.jpg&quot; rel=&quot;nofollow&quot; target=&quot;_NEW&quot;&gt;\nhttp://postimg.com/image/20000/19841.jpg&lt;/a&gt; &lt;a href=&quot;\nhttp://postimg.com/image/20000/19842.jpg&quot; rel=&quot;nofollow&quot; target=&quot;_NEW&quot;&gt;\nhttp://postimg.com/image/20000/19842.jpg&lt;/a&gt; &lt;a href=&quot;\nhttp://postimg.com/image/20000/19844.jpg&quot; rel=&quot;nofollow&quot; target=&quot;_NEW&quot;&gt;\nhttp://postimg.com/image/20000/19844.jpg&lt;/a&gt; &lt;a href=&quot;\nhttp://postimg.com/image/20000/19845.jpg&quot; rel=&quot;nofollow&quot; target=&quot;_NEW&quot;&gt;\nhttp://postimg.com/image/20000/19845.jpg&lt;/a&gt; &lt;a href=&quot;\nhttp://postimg.com/image/20000/19846.jpg&quot; rel=&quot;nofollow&quot; target=&quot;_NEW&quot;&gt;\nhttp://postimg.com/image/20000/19846.jpg&lt;/a&gt; &lt;a href=&quot;\nhttp://postimg.com/image/20000/19847.jpg&quot; rel=&quot;nofollow&quot; target=&quot;_NEW&quot;&gt;\nhttp://postimg.com/image/20000/19847.jpg&lt;/a&gt;\n\n\nGeneral\nComplete name : Krush Groove 1985 DVDRip Xvid BigPerm LKRG\\\\KG_LKRG.avi\nFormat : AVI\nFormat/Info : Audio Video Interleave\nFile size : 941 MiB\nDuration : 1h 34mn\nOverall bit rate : 1 396 Kbps\n\nVideo\nID : 0\nFormat : MPEG-4 Visual\nFormat profile : Advanced Simple@L5\nFormat settings, BVOP : Yes\nFormat settings, QPel : No\nFormat settings, GMC : No warppoints\nFormat settings, Matrix : Default (H.263)\nCodec ID : XVID\nCodec ID/Hint : XviD\nDuration : 1h 34mn\nBit rate : 1 199 Kbps\nWidth : 720 pixels\nHeight : 404 pixels\nDisplay aspect ratio : 16:9\nFrame rate : 23.976 fps\nResolution : 8 bits\nColorimetry : 4:2:0\nScan type : Progressive\nBits/(Pixel*Frame) : 0.172\nStream size : 808 MiB (86%)\nWriting library : XviD 1.2.1 (UTC 2008-12-04)\n\nAudio\nID : 1\nFormat : AC-3\nFormat/Info : Audio Coding 3\nCodec ID : 2000\nDuration : 1h 34mn\nBit rate mode : Constant\nBit rate : 192 Kbps\nChannel(s) : 2 channels\nChannel positions : Front: L R\nSampling rate : 48.0 KHz\nResolution : 16 bits\nVideo delay : 42ms\nStream size : 129 MiB (14%)\nAlignment : Split accross interleaves\nLanguage : English\n\n &lt;a href=&quot;\nhttp://postimg.com/image/20000/19848.jpg&quot; rel=&quot;nofollow&quot; target=&quot;_NEW&quot;&gt;\nhttp://postimg.com/image/20000/19848.jpg&lt;/a&gt;","torrent":{"xt":"urn:btih:53e76fcff7aae2b7b1adb58af9d5a2182cb30616","amp;dn":"Krush+Groove+1985+DVDRip+Xvid+BigPerm+LKRG","amp;tr":["udp%3A%2F%2Ftracker.openbittorrent.com%3A80","udp%3A%2F%2Fopen.demonii.com%3A1337","udp%3A%2F%2Ftracker.coppersurfer.tk%3A6969","udp%3A%2F%2Fexodus.desync.com%3A6969"],"infoHash":"53e76fcff7aae2b7b1adb58af9d5a2182cb30616","infoHashBuffer":{"type":"Buffer","data":[83,231,111,207,247,170,226,183,177,173,181,138,249,213,162,24,44,179,6,22]},"announce":[],"urlList":[]}}